<svg version="1.1" viewBox="0.0 0.0 512.0 512.0" fill="none" stroke="none" stroke-linecap="square" stroke-miterlimit="10" xmlns:xlink="http://www.w3.org/1999/xlink" xmlns="http://www.w3.org/2000/svg"><clipPath id="p.0"><path d="m0 0l512.0 0l0 512.0l-512.0 0l0 -512.0z" clip-rule="nonzero"/></clipPath><g clip-path="url(#p.0)"><path fill="#000000" fill-opacity="0.0" d="m0 0l512.0 0l0 512.0l-512.0 0z" fill-rule="evenodd"/><path fill="#000000" fill-opacity="0.0" d="m9.276815 25.433687l493.44882 0l0 461.13385l-493.44882 0z" fill-rule="evenodd"/><path fill="#000000" d="m113.70847 329.6837q-1.828125 -1.8125 -2.625 -4.3125q-0.796875 -2.515625 -3.765625 -4.109375q-0.453125 -3.421875 -1.25 -7.859375q-0.796875 -4.453125 -1.59375 -9.125q-0.796875 -4.671875 -1.140625 -9.34375q-0.34375 -4.671875 0.34375 -8.546875q0.453125 -2.046875 1.46875 -3.859375q1.03125 -1.828125 2.0625 -3.53125q1.03125 -1.71875 1.59375 -3.53125q0.578125 -1.828125 0.109375 -3.65625q1.375 -0.21875 1.71875 -1.46875q0.34375 -1.265625 2.15625 -0.8125q1.59375 -5.015625 3.421875 -9.34375q1.828125 -4.328125 3.875 -8.421875q2.046875 -4.109375 4.203125 -8.3125q2.171875 -4.21875 3.9999924 -9.46875q-3.8749924 -3.640625 -5.5937424 -7.859375q-1.703125 -4.21875 -2.609375 -8.546875q-0.90625 -4.328125 -1.375 -8.765625q-0.453125 -4.4375 -1.8125 -9.0q2.734375 -4.109375 6.609375 -6.71875q3.875 -2.625 8.546867 -4.328125q4.671875 -1.71875 10.140625 -2.734375q5.46875 -1.03125 11.609375 -2.40625q10.9375 -3.40625 19.59375 -5.34375q8.671875 -1.9375 16.875 -3.1875q8.203125 -1.265625 17.078125 -2.28125q8.890625 -1.03125 20.515625 -3.078125q0.21875 0.6875 0.78125 0.6875q0.578125 0 1.5 0q0.671875 1.59375 2.5 1.59375q0 -0.6875 -0.125 -1.25q-0.109375 -0.578125 -0.109375 -1.03125q0.46875 0 1.265625 0.234375q0.796875 0.21875 1.359375 0.453125q0.578125 0.21875 1.03125 -0.125q0.453125 -0.34375 0.21875 -1.46875q2.734375 4.78125 7.0625 7.859375q4.328125 3.078125 9.578125 5.34375q0.21875 2.0625 0.109375 2.96875q-0.109375 0.90625 -0.34375 1.703125q-0.21875 0.796875 -0.21875 1.828125q0 1.03125 0.453125 2.84375q-3.640625 6.15625 -8.3125 9.578125q-4.671875 3.421875 -9.921875 5.25q-5.234375 1.8125 -11.046875 2.734375q-5.8125 0.90625 -11.859375 1.9375q-6.03125 1.015625 -12.1875 2.84375q-6.140625 1.8125 -12.0625 5.453125q-1.828125 -0.671875 -3.3125 -0.5625q-1.484375 0.109375 -3.078125 0.578125q-1.59375 0.453125 -3.53125 0.90625q-1.9375 0.453125 -4.671875 0q-1.8125 1.59375 -4.21875 2.28125q-2.390625 0.671875 -4.890625 1.359375q1.140625 2.5 1.015625 5.015625q-0.109375 2.5 0.578125 4.328125q9.5625 0.90625 21.1875 -0.109375q11.625 -1.03125 22.796875 -1.484375q0.21875 1.140625 -0.234375 1.59375q-0.453125 0.453125 -0.453125 1.59375q2.046875 1.375 3.859375 3.421875q1.828125 2.046875 3.765625 3.984375q1.9375 1.9375 3.984375 3.1875q2.0625 1.25 4.796875 1.03125q1.140625 2.28125 1.59375 4.78125q0.453125 2.5 -0.6875 5.234375q-4.5625 2.96875 -8.890625 6.046875q-4.328125 3.078125 -9.0 5.59375q-4.671875 2.5 -10.140625 4.09375q-5.46875 1.59375 -11.84375 1.359375q-1.140625 0 -1.9375 0q-0.796875 0 -1.9375 -0.90625q-2.28125 1.140625 -6.046875 0.796875q-3.75 -0.34375 -6.25 0.796875q-3.203125 -1.140625 -7.421875 -1.140625q-4.203125 0 -7.390625 -1.140625q-4.109375 5.921875 -7.75 12.421875q-3.640625 6.484375 -6.375 13.78125q9.34375 1.375 15.484375 1.140625q6.15625 -0.234375 11.625 -0.90625q5.46875 -0.6875 11.28125 -1.375q5.8125 -0.6875 14.234375 -0.453125q5.703125 -2.734375 13.109375 -3.75q7.40625 -1.03125 13.78125 -3.078125q2.28125 0.671875 3.875 2.609375q1.59375 1.9375 3.078125 3.875q1.484375 1.9375 3.078125 3.3125q1.59375 1.359375 4.09375 0.90625q1.140625 1.140625 1.484375 2.734375q0.34375 1.59375 0.6875 2.96875q0.34375 1.359375 1.015625 2.15625q0.6875 0.796875 2.515625 0.578125q-4.328125 8.875 -9.6875 13.671875q-5.359375 4.78125 -12.078125 7.40625q-6.71875 2.609375 -15.046875 3.875q-8.3125 1.25 -18.5625 3.0625q-2.5 0.453125 -4.21875 -0.109375q-1.703125 -0.5625 -3.53125 -0.5625q-6.375 1.125 -15.15625 2.265625q-8.765625 1.140625 -17.65625 0.90625q-8.875 -0.21875 -17.078117 -2.265625q-8.203125 -2.046875 -13.671875 -7.296875zm127.59829 -13.890625l2.953125 -2.28125l0.234375 -4.78125q5.703125 -13.90625 11.734375 -26.65625q6.03125 -12.765625 12.6406555 -26.21875q2.0625 -4.328125 4.21875 -8.65625q2.171875 -4.328125 4.21875 -8.890625q-0.234375 -0.90625 -0.234375 -1.921875q0 -1.03125 0.46875 -2.40625q3.1875 -4.546875 5.125 -8.1875q1.9375 -3.65625 3.75 -7.53125q2.0625 -4.5625 4.453125 -9.109375q2.390625 -4.5625 6.03125 -8.890625l1.59375 -2.28125l2.515625 0.234375q0.90625 -0.453125 1.921875 -0.796875q1.03125 -0.34375 2.625 -0.34375l4.109375 0.6875q7.515625 -3.421875 13.328125 -9.90625q5.8125 -6.5 11.734375 -15.625l2.734375 -3.875l3.640625 2.28125q1.140625 0.6875 3.640625 1.375q2.515625 0.671875 5.25 1.59375q4.78125 1.140625 9.34375 2.625q4.5625 1.46875 7.0625 3.984375l1.140625 2.046875q0.453125 2.5 0.796875 4.5625q0.34375 2.046875 0.796875 4.09375q0.90625 4.78125 1.59375 9.453125q0.6875 4.671875 0.90625 10.375q1.140625 4.5625 2.15625 9.234375q1.03125 4.65625 1.953125 9.21875q1.140625 6.609375 2.5 12.65625q1.375 6.03125 3.65625 11.5q2.265625 0 2.734375 0.21875q2.734375 -1.125 6.375 -1.359375l2.953125 -0.234375l0.921875 2.734375q0.453125 0.6875 1.125 1.375q0.6875 0.6875 1.609375 1.359375q3.640625 0.234375 5.34375 1.484375q1.71875 1.25 2.859375 2.390625q0.453125 0.453125 1.125 1.03125q0.6875 0.5625 1.15625 0.796875l4.09375 1.59375l-2.28125 4.328125q-2.5 4.78125 -7.625 9.34375q-5.125 4.5625 -11.515625 7.515625q0.453125 1.59375 0.5625 2.96875q0.125 1.359375 0.578125 3.1875q0.921875 4.5625 1.484375 9.46875q0.5625 4.890625 -0.109375 10.125q-2.28125 5.921875 -5.359375 10.59375q-3.078125 4.671875 -7.296875 8.4375q-4.203125 3.75 -9.453125 6.15625q-5.234375 2.390625 -10.9375 2.609375q-3.1875 -0.6875 -4.671875 -1.59375q-1.484375 -0.90625 -2.609375 -1.8125q-1.828125 -1.375 -2.96875 -1.828125l-2.96875 -1.375l0.921875 -3.40625q0.671875 -1.828125 -0.125 -3.1875q-0.796875 -1.375 -3.296875 -3.65625q-0.90625 -0.6875 -1.59375 -1.484375q-0.6875 -0.796875 -1.59375 -1.703125l-4.5625 -5.234375l7.515625 -2.0625q6.84375 -1.8125 9.125 -4.65625q2.28125 -2.859375 1.8125 -10.15625q-5.6875 -1.140625 -9.34375 -0.328125q-3.640625 0.796875 -7.28125 1.703125q-5.25 1.359375 -10.265625 2.390625q-5.0 1.03125 -10.921875 1.03125q-3.875 0 -8.203125 -0.6875l-2.515625 -0.234375l-0.6875 -2.5q0 -0.453125 -0.5625 -1.015625q-0.5625 -0.578125 -1.03125 -1.03125q-1.140625 -1.375 -2.734375 -3.65625q-1.59375 -2.28125 -0.671875 -5.6875q-1.59375 -2.515625 -1.828125 -5.25q-0.90625 1.828125 -1.484375 3.546875q-0.5625 1.703125 -1.015625 3.296875l-0.921875 2.953125l-2.953125 0.46875q-0.46875 0.453125 -0.8125 1.359375q-0.328125 0.90625 -0.109375 1.375l0.921875 2.5l-2.28125 2.046875q-0.453125 0.6875 -1.140625 1.140625q-0.6875 0.453125 -1.140625 0.90625q-0.453125 2.515625 -1.25 4.796875q-0.796875 2.28125 -1.71875 4.546875q-1.140625 3.65625 -2.171875 7.078125q-1.015625 3.40625 -1.015625 6.828125l-0.90625 2.96875q-1.140625 1.8125 -2.859375 2.734375q-1.703125 0.90625 -3.296875 1.59375q-2.28125 0.90625 -3.1875 1.8125l-0.6875 2.96875l-3.421875 0.453125q-2.9531555 0.6875 -4.2187805 0.90625q-1.25 0.234375 -2.84375 0.234375l-2.953125 -0.234375q-2.734375 -2.734375 -4.453125 -4.203125q-1.703125 -1.484375 -3.984375 -2.625l-1.359375 -1.828125q-0.921875 -1.8125 -1.140625 -3.296875q-0.234375 -1.484375 -0.6875 -3.078125q-0.453125 -2.96875 -1.359375 -4.109375l-3.421875 -3.40625zm72.68753 -59.25q-3.1875 4.5625 -6.15625 9.578125q1.59375 -0.234375 3.078125 -0.234375q1.484375 0 3.078125 -0.234375q7.96875 -0.453125 14.796875 -1.125q6.84375 -0.6875 14.828125 -2.28125q-1.828125 -8.4375 -4.0 -17.203125q-2.15625 -8.78125 -4.671875 -17.671875l-1.125 2.28125q-5.703125 6.15625 -10.953125 13.21875q-5.234375 7.0625 -8.65625 13.4375l-0.21875 0.234375z" fill-rule="nonzero"/></g></svg>